<mxfile host="app.diagrams.net" modified="2023-12-19T08:15:45.269Z" agent="Mozilla/5.0 (Windows NT 10.0; Win64; x64) AppleWebKit/537.36 (KHTML, like Gecko) Chrome/120.0.0.0 Safari/537.36 Edg/120.0.0.0" etag="pxlAhOPk8ajREziJDGom" version="22.1.11" type="github">
  <diagram name="第 1 页" id="vNETmD4KBEwsyQtvmrSk">
    <mxGraphModel dx="2395" dy="1515" grid="1" gridSize="10" guides="1" tooltips="1" connect="1" arrows="1" fold="1" page="1" pageScale="1" pageWidth="827" pageHeight="1169" math="0" shadow="0">
      <root>
        <mxCell id="0" />
        <mxCell id="1" parent="0" />
        <mxCell id="VZRTLRRTHnjhb6GY3BH8-1" value="闭店流程" style="swimlane;childLayout=stackLayout;resizeParent=1;resizeParentMax=0;startSize=20;html=1;" vertex="1" parent="1">
          <mxGeometry x="4.547473508864641e-13" width="1759.9999999999995" height="1320" as="geometry" />
        </mxCell>
        <mxCell id="VZRTLRRTHnjhb6GY3BH8-2" value="市场部" style="swimlane;startSize=20;html=1;" vertex="1" parent="VZRTLRRTHnjhb6GY3BH8-1">
          <mxGeometry y="20" width="160" height="1300" as="geometry" />
        </mxCell>
        <mxCell id="VZRTLRRTHnjhb6GY3BH8-11" value="" style="edgeStyle=orthogonalEdgeStyle;rounded=0;orthogonalLoop=1;jettySize=auto;html=1;" edge="1" parent="VZRTLRRTHnjhb6GY3BH8-2" source="VZRTLRRTHnjhb6GY3BH8-9" target="VZRTLRRTHnjhb6GY3BH8-10">
          <mxGeometry relative="1" as="geometry" />
        </mxCell>
        <mxCell id="VZRTLRRTHnjhb6GY3BH8-9" value="开始" style="strokeWidth=2;html=1;shape=mxgraph.flowchart.terminator;whiteSpace=wrap;fillColor=#fff2cc;strokeColor=#d6b656;" vertex="1" parent="VZRTLRRTHnjhb6GY3BH8-2">
          <mxGeometry x="29.999999999999545" y="50" width="100" height="60" as="geometry" />
        </mxCell>
        <mxCell id="VZRTLRRTHnjhb6GY3BH8-10" value="提交闭店申请" style="whiteSpace=wrap;html=1;strokeWidth=2;" vertex="1" parent="VZRTLRRTHnjhb6GY3BH8-2">
          <mxGeometry x="19.999999999999545" y="190" width="120" height="60" as="geometry" />
        </mxCell>
        <mxCell id="VZRTLRRTHnjhb6GY3BH8-3" value="战略发展中心" style="swimlane;startSize=20;html=1;" vertex="1" parent="VZRTLRRTHnjhb6GY3BH8-1">
          <mxGeometry x="160" y="20" width="190" height="1300" as="geometry" />
        </mxCell>
        <mxCell id="VZRTLRRTHnjhb6GY3BH8-12" value="闭店审核" style="strokeWidth=2;html=1;shape=mxgraph.flowchart.decision;whiteSpace=wrap;fillColor=#fff2cc;strokeColor=#d6b656;" vertex="1" parent="VZRTLRRTHnjhb6GY3BH8-3">
          <mxGeometry x="44.999999999999545" y="170" width="100" height="100" as="geometry" />
        </mxCell>
        <mxCell id="VZRTLRRTHnjhb6GY3BH8-15" value="立项审批" style="strokeWidth=2;html=1;shape=mxgraph.flowchart.decision;whiteSpace=wrap;fillColor=#fff2cc;strokeColor=#d6b656;" vertex="1" parent="VZRTLRRTHnjhb6GY3BH8-3">
          <mxGeometry x="44.999999999999545" y="310" width="100" height="100" as="geometry" />
        </mxCell>
        <mxCell id="VZRTLRRTHnjhb6GY3BH8-4" value="销售部" style="swimlane;startSize=20;html=1;" vertex="1" parent="VZRTLRRTHnjhb6GY3BH8-1">
          <mxGeometry x="350" y="20" width="320" height="1300" as="geometry" />
        </mxCell>
        <mxCell id="VZRTLRRTHnjhb6GY3BH8-14" value="提交立项申请" style="rounded=0;whiteSpace=wrap;html=1;" vertex="1" parent="VZRTLRRTHnjhb6GY3BH8-4">
          <mxGeometry x="39.999999999999545" y="190" width="120" height="60" as="geometry" />
        </mxCell>
        <mxCell id="VZRTLRRTHnjhb6GY3BH8-32" value="" style="rounded=0;whiteSpace=wrap;html=1;" vertex="1" parent="VZRTLRRTHnjhb6GY3BH8-4">
          <mxGeometry x="10" y="600" width="300" height="260" as="geometry" />
        </mxCell>
        <mxCell id="VZRTLRRTHnjhb6GY3BH8-33" value="闭店事项" style="text;html=1;align=center;verticalAlign=middle;resizable=0;points=[];autosize=1;strokeColor=none;fillColor=none;fontStyle=1" vertex="1" parent="VZRTLRRTHnjhb6GY3BH8-4">
          <mxGeometry x="124.99999999999955" y="610" width="70" height="30" as="geometry" />
        </mxCell>
        <mxCell id="VZRTLRRTHnjhb6GY3BH8-34" value="人员安排提报" style="rounded=1;whiteSpace=wrap;html=1;" vertex="1" parent="VZRTLRRTHnjhb6GY3BH8-4">
          <mxGeometry x="19.999999999999545" y="650" width="120" height="60" as="geometry" />
        </mxCell>
        <mxCell id="VZRTLRRTHnjhb6GY3BH8-35" value="宽带/证照注销" style="rounded=1;whiteSpace=wrap;html=1;" vertex="1" parent="VZRTLRRTHnjhb6GY3BH8-4">
          <mxGeometry x="179.99999999999955" y="650" width="120" height="60" as="geometry" />
        </mxCell>
        <mxCell id="VZRTLRRTHnjhb6GY3BH8-36" value="物资清点/打包" style="rounded=1;whiteSpace=wrap;html=1;" vertex="1" parent="VZRTLRRTHnjhb6GY3BH8-4">
          <mxGeometry x="19.999999999999545" y="720" width="120" height="60" as="geometry" />
        </mxCell>
        <mxCell id="VZRTLRRTHnjhb6GY3BH8-37" value="备用金回款" style="rounded=1;whiteSpace=wrap;html=1;" vertex="1" parent="VZRTLRRTHnjhb6GY3BH8-4">
          <mxGeometry x="179.99999999999955" y="720" width="120" height="60" as="geometry" />
        </mxCell>
        <mxCell id="VZRTLRRTHnjhb6GY3BH8-38" value="日常报销提报" style="rounded=1;whiteSpace=wrap;html=1;fillColor=#f5f5f5;fontColor=#333333;strokeColor=#99CCFF;dashed=1;dashPattern=8 8;" vertex="1" parent="VZRTLRRTHnjhb6GY3BH8-4">
          <mxGeometry x="19.999999999999545" y="790" width="120" height="60" as="geometry" />
        </mxCell>
        <mxCell id="VZRTLRRTHnjhb6GY3BH8-39" value="水电费结账" style="rounded=1;whiteSpace=wrap;html=1;fillColor=#f5f5f5;fontColor=#333333;strokeColor=#99CCFF;dashed=1;dashPattern=8 8;" vertex="1" parent="VZRTLRRTHnjhb6GY3BH8-4">
          <mxGeometry x="179.99999999999955" y="790" width="120" height="60" as="geometry" />
        </mxCell>
        <mxCell id="VZRTLRRTHnjhb6GY3BH8-19" value="人事部" style="swimlane;startSize=20;html=1;" vertex="1" parent="VZRTLRRTHnjhb6GY3BH8-1">
          <mxGeometry x="670" y="20" width="160" height="1300" as="geometry" />
        </mxCell>
        <mxCell id="VZRTLRRTHnjhb6GY3BH8-21" value="通知发文" style="rounded=0;whiteSpace=wrap;html=1;" vertex="1" parent="VZRTLRRTHnjhb6GY3BH8-19">
          <mxGeometry x="19.999999999999545" y="330" width="120" height="60" as="geometry" />
        </mxCell>
        <mxCell id="VZRTLRRTHnjhb6GY3BH8-5" value="商品部" style="swimlane;startSize=20;html=1;" vertex="1" parent="VZRTLRRTHnjhb6GY3BH8-1">
          <mxGeometry x="830" y="20" width="170" height="1300" as="geometry" />
        </mxCell>
        <mxCell id="VZRTLRRTHnjhb6GY3BH8-29" value="" style="edgeStyle=orthogonalEdgeStyle;rounded=0;orthogonalLoop=1;jettySize=auto;html=1;" edge="1" parent="VZRTLRRTHnjhb6GY3BH8-5" source="VZRTLRRTHnjhb6GY3BH8-25" target="VZRTLRRTHnjhb6GY3BH8-27">
          <mxGeometry relative="1" as="geometry" />
        </mxCell>
        <mxCell id="VZRTLRRTHnjhb6GY3BH8-25" value="商品停发" style="whiteSpace=wrap;html=1;strokeWidth=2;" vertex="1" parent="VZRTLRRTHnjhb6GY3BH8-5">
          <mxGeometry x="24.999999999999545" y="480" width="120" height="60" as="geometry" />
        </mxCell>
        <mxCell id="VZRTLRRTHnjhb6GY3BH8-30" value="" style="edgeStyle=orthogonalEdgeStyle;rounded=0;orthogonalLoop=1;jettySize=auto;html=1;dashed=1;dashPattern=8 8;" edge="1" parent="VZRTLRRTHnjhb6GY3BH8-5" source="VZRTLRRTHnjhb6GY3BH8-27" target="VZRTLRRTHnjhb6GY3BH8-28">
          <mxGeometry relative="1" as="geometry" />
        </mxCell>
        <mxCell id="VZRTLRRTHnjhb6GY3BH8-27" value="商品促销申请" style="whiteSpace=wrap;html=1;strokeWidth=2;fillColor=#f5f5f5;fontColor=#333333;strokeColor=#99CCFF;dashed=1;dashPattern=8 8;" vertex="1" parent="VZRTLRRTHnjhb6GY3BH8-5">
          <mxGeometry x="24.999999999999545" y="580" width="120" height="60" as="geometry" />
        </mxCell>
        <mxCell id="VZRTLRRTHnjhb6GY3BH8-28" value="商品调拨申请" style="whiteSpace=wrap;html=1;strokeWidth=2;fillColor=#f5f5f5;fontColor=#333333;strokeColor=#99CCFF;dashed=1;dashPattern=8 8;" vertex="1" parent="VZRTLRRTHnjhb6GY3BH8-5">
          <mxGeometry x="24.999999999999545" y="680" width="120" height="60" as="geometry" />
        </mxCell>
        <mxCell id="VZRTLRRTHnjhb6GY3BH8-6" value="工程部" style="swimlane;startSize=20;html=1;" vertex="1" parent="VZRTLRRTHnjhb6GY3BH8-1">
          <mxGeometry x="1000" y="20" width="150" height="1300" as="geometry" />
        </mxCell>
        <mxCell id="VZRTLRRTHnjhb6GY3BH8-40" value="进场拆除" style="whiteSpace=wrap;html=1;strokeWidth=2;" vertex="1" parent="VZRTLRRTHnjhb6GY3BH8-6">
          <mxGeometry x="14.999999999999545" y="880" width="120" height="60" as="geometry" />
        </mxCell>
        <mxCell id="VZRTLRRTHnjhb6GY3BH8-7" value="财务部" style="swimlane;startSize=20;html=1;" vertex="1" parent="VZRTLRRTHnjhb6GY3BH8-1">
          <mxGeometry x="1150" y="20" width="320" height="1300" as="geometry" />
        </mxCell>
        <mxCell id="VZRTLRRTHnjhb6GY3BH8-59" value="" style="edgeStyle=orthogonalEdgeStyle;rounded=0;orthogonalLoop=1;jettySize=auto;html=1;" edge="1" parent="VZRTLRRTHnjhb6GY3BH8-7" source="VZRTLRRTHnjhb6GY3BH8-47" target="VZRTLRRTHnjhb6GY3BH8-55">
          <mxGeometry relative="1" as="geometry" />
        </mxCell>
        <mxCell id="VZRTLRRTHnjhb6GY3BH8-47" value="" style="rounded=0;whiteSpace=wrap;html=1;" vertex="1" parent="VZRTLRRTHnjhb6GY3BH8-7">
          <mxGeometry x="20" y="900" width="300" height="270" as="geometry" />
        </mxCell>
        <mxCell id="VZRTLRRTHnjhb6GY3BH8-48" value="财务决算" style="text;html=1;align=center;verticalAlign=middle;resizable=0;points=[];autosize=1;strokeColor=none;fillColor=none;fontStyle=1" vertex="1" parent="VZRTLRRTHnjhb6GY3BH8-7">
          <mxGeometry x="134.99999999999955" y="910" width="70" height="30" as="geometry" />
        </mxCell>
        <mxCell id="VZRTLRRTHnjhb6GY3BH8-49" value="备用金确认回款" style="rounded=1;whiteSpace=wrap;html=1;" vertex="1" parent="VZRTLRRTHnjhb6GY3BH8-7">
          <mxGeometry x="29.999999999999545" y="960" width="120" height="60" as="geometry" />
        </mxCell>
        <mxCell id="VZRTLRRTHnjhb6GY3BH8-50" value="日常报销确认打款" style="rounded=1;whiteSpace=wrap;html=1;" vertex="1" parent="VZRTLRRTHnjhb6GY3BH8-7">
          <mxGeometry x="189.99999999999955" y="960" width="120" height="60" as="geometry" />
        </mxCell>
        <mxCell id="VZRTLRRTHnjhb6GY3BH8-51" value="人员薪资确认打款" style="rounded=1;whiteSpace=wrap;html=1;" vertex="1" parent="VZRTLRRTHnjhb6GY3BH8-7">
          <mxGeometry x="29.999999999999545" y="1030" width="120" height="60" as="geometry" />
        </mxCell>
        <mxCell id="VZRTLRRTHnjhb6GY3BH8-52" value="风险抵押金确认打款" style="rounded=1;whiteSpace=wrap;html=1;" vertex="1" parent="VZRTLRRTHnjhb6GY3BH8-7">
          <mxGeometry x="189.99999999999955" y="1030" width="120" height="60" as="geometry" />
        </mxCell>
        <mxCell id="VZRTLRRTHnjhb6GY3BH8-53" value="经营利润表确认" style="rounded=1;whiteSpace=wrap;html=1;" vertex="1" parent="VZRTLRRTHnjhb6GY3BH8-7">
          <mxGeometry x="29.999999999999545" y="1100" width="120" height="60" as="geometry" />
        </mxCell>
        <mxCell id="VZRTLRRTHnjhb6GY3BH8-54" value="完成股本核算" style="rounded=1;whiteSpace=wrap;html=1;" vertex="1" parent="VZRTLRRTHnjhb6GY3BH8-7">
          <mxGeometry x="189.99999999999955" y="1100" width="120" height="60" as="geometry" />
        </mxCell>
        <mxCell id="VZRTLRRTHnjhb6GY3BH8-55" value="结束" style="strokeWidth=2;html=1;shape=mxgraph.flowchart.terminator;whiteSpace=wrap;fillColor=#fff2cc;strokeColor=#d6b656;" vertex="1" parent="VZRTLRRTHnjhb6GY3BH8-7">
          <mxGeometry x="119.99999999999955" y="1230" width="100" height="60" as="geometry" />
        </mxCell>
        <mxCell id="VZRTLRRTHnjhb6GY3BH8-8" value="信息部" style="swimlane;startSize=20;html=1;" vertex="1" parent="VZRTLRRTHnjhb6GY3BH8-1">
          <mxGeometry x="1470" y="20" width="160" height="1300" as="geometry" />
        </mxCell>
        <mxCell id="VZRTLRRTHnjhb6GY3BH8-45" value="" style="edgeStyle=orthogonalEdgeStyle;rounded=0;orthogonalLoop=1;jettySize=auto;html=1;" edge="1" parent="VZRTLRRTHnjhb6GY3BH8-8" source="VZRTLRRTHnjhb6GY3BH8-31" target="VZRTLRRTHnjhb6GY3BH8-43">
          <mxGeometry relative="1" as="geometry" />
        </mxCell>
        <mxCell id="VZRTLRRTHnjhb6GY3BH8-31" value="指令变更" style="rounded=0;whiteSpace=wrap;html=1;" vertex="1" parent="VZRTLRRTHnjhb6GY3BH8-8">
          <mxGeometry x="19.999999999999545" y="420" width="120" height="60" as="geometry" />
        </mxCell>
        <mxCell id="VZRTLRRTHnjhb6GY3BH8-66" value="" style="edgeStyle=orthogonalEdgeStyle;rounded=0;orthogonalLoop=1;jettySize=auto;html=1;exitX=0.5;exitY=1;exitDx=0;exitDy=0;" edge="1" parent="VZRTLRRTHnjhb6GY3BH8-8" source="VZRTLRRTHnjhb6GY3BH8-43">
          <mxGeometry relative="1" as="geometry">
            <mxPoint x="-90.00000000000045" y="1260" as="targetPoint" />
            <Array as="points">
              <mxPoint x="80" y="1260" />
            </Array>
          </mxGeometry>
        </mxCell>
        <mxCell id="VZRTLRRTHnjhb6GY3BH8-43" value="账号停用" style="rounded=0;whiteSpace=wrap;html=1;" vertex="1" parent="VZRTLRRTHnjhb6GY3BH8-8">
          <mxGeometry x="19.999999999999545" y="570" width="120" height="60" as="geometry" />
        </mxCell>
        <mxCell id="VZRTLRRTHnjhb6GY3BH8-13" value="" style="edgeStyle=orthogonalEdgeStyle;rounded=0;orthogonalLoop=1;jettySize=auto;html=1;" edge="1" parent="VZRTLRRTHnjhb6GY3BH8-1" source="VZRTLRRTHnjhb6GY3BH8-10" target="VZRTLRRTHnjhb6GY3BH8-12">
          <mxGeometry relative="1" as="geometry" />
        </mxCell>
        <mxCell id="VZRTLRRTHnjhb6GY3BH8-17" value="" style="edgeStyle=orthogonalEdgeStyle;rounded=0;orthogonalLoop=1;jettySize=auto;html=1;exitX=0.5;exitY=1;exitDx=0;exitDy=0;" edge="1" parent="VZRTLRRTHnjhb6GY3BH8-1" source="VZRTLRRTHnjhb6GY3BH8-14" target="VZRTLRRTHnjhb6GY3BH8-15">
          <mxGeometry relative="1" as="geometry">
            <mxPoint x="449.99999999999955" y="350" as="targetPoint" />
          </mxGeometry>
        </mxCell>
        <mxCell id="VZRTLRRTHnjhb6GY3BH8-18" value="" style="edgeStyle=orthogonalEdgeStyle;rounded=0;orthogonalLoop=1;jettySize=auto;html=1;" edge="1" parent="VZRTLRRTHnjhb6GY3BH8-1" source="VZRTLRRTHnjhb6GY3BH8-12" target="VZRTLRRTHnjhb6GY3BH8-14">
          <mxGeometry relative="1" as="geometry" />
        </mxCell>
        <mxCell id="VZRTLRRTHnjhb6GY3BH8-24" value="" style="endArrow=classic;html=1;rounded=0;exitX=1;exitY=0.5;exitDx=0;exitDy=0;exitPerimeter=0;entryX=0;entryY=0.5;entryDx=0;entryDy=0;" edge="1" parent="VZRTLRRTHnjhb6GY3BH8-1" source="VZRTLRRTHnjhb6GY3BH8-15" target="VZRTLRRTHnjhb6GY3BH8-21">
          <mxGeometry width="50" height="50" relative="1" as="geometry">
            <mxPoint x="469.99999999999955" y="390" as="sourcePoint" />
            <mxPoint x="519.9999999999995" y="340" as="targetPoint" />
          </mxGeometry>
        </mxCell>
        <mxCell id="VZRTLRRTHnjhb6GY3BH8-26" value="" style="edgeStyle=orthogonalEdgeStyle;rounded=0;orthogonalLoop=1;jettySize=auto;html=1;exitX=0.5;exitY=1;exitDx=0;exitDy=0;exitPerimeter=0;entryX=0;entryY=0.5;entryDx=0;entryDy=0;" edge="1" parent="VZRTLRRTHnjhb6GY3BH8-1" source="VZRTLRRTHnjhb6GY3BH8-15" target="VZRTLRRTHnjhb6GY3BH8-25">
          <mxGeometry relative="1" as="geometry" />
        </mxCell>
        <mxCell id="VZRTLRRTHnjhb6GY3BH8-41" value="物流部" style="swimlane;startSize=20;html=1;" vertex="1" parent="VZRTLRRTHnjhb6GY3BH8-1">
          <mxGeometry x="1630" y="20" width="129.99999999999955" height="1300" as="geometry" />
        </mxCell>
        <mxCell id="VZRTLRRTHnjhb6GY3BH8-63" value="确认物资接收" style="whiteSpace=wrap;html=1;strokeWidth=2;" vertex="1" parent="VZRTLRRTHnjhb6GY3BH8-41">
          <mxGeometry x="4.999999999999545" y="800" width="120" height="60" as="geometry" />
        </mxCell>
        <mxCell id="VZRTLRRTHnjhb6GY3BH8-44" value="" style="endArrow=classic;html=1;rounded=0;entryX=0;entryY=0.5;entryDx=0;entryDy=0;exitX=0.5;exitY=1;exitDx=0;exitDy=0;exitPerimeter=0;" edge="1" parent="VZRTLRRTHnjhb6GY3BH8-1" source="VZRTLRRTHnjhb6GY3BH8-15" target="VZRTLRRTHnjhb6GY3BH8-31">
          <mxGeometry width="50" height="50" relative="1" as="geometry">
            <mxPoint x="1269.9999999999995" y="470" as="sourcePoint" />
            <mxPoint x="1319.9999999999995" y="420" as="targetPoint" />
            <Array as="points">
              <mxPoint x="254.99999999999955" y="470" />
            </Array>
          </mxGeometry>
        </mxCell>
        <mxCell id="VZRTLRRTHnjhb6GY3BH8-46" value="" style="endArrow=classic;html=1;rounded=0;entryX=0;entryY=0.5;entryDx=0;entryDy=0;exitX=0.5;exitY=1;exitDx=0;exitDy=0;exitPerimeter=0;" edge="1" parent="VZRTLRRTHnjhb6GY3BH8-1" source="VZRTLRRTHnjhb6GY3BH8-15" target="VZRTLRRTHnjhb6GY3BH8-32">
          <mxGeometry width="50" height="50" relative="1" as="geometry">
            <mxPoint x="219.99999999999955" y="750" as="sourcePoint" />
            <mxPoint x="269.99999999999955" y="700" as="targetPoint" />
            <Array as="points">
              <mxPoint x="254.99999999999955" y="750" />
            </Array>
          </mxGeometry>
        </mxCell>
        <mxCell id="VZRTLRRTHnjhb6GY3BH8-61" value="" style="endArrow=classic;html=1;rounded=0;exitX=0.5;exitY=1;exitDx=0;exitDy=0;" edge="1" parent="VZRTLRRTHnjhb6GY3BH8-1" source="VZRTLRRTHnjhb6GY3BH8-32" target="VZRTLRRTHnjhb6GY3BH8-40">
          <mxGeometry width="50" height="50" relative="1" as="geometry">
            <mxPoint x="1661.0000000000005" y="760" as="sourcePoint" />
            <mxPoint x="2040" y="890" as="targetPoint" />
            <Array as="points">
              <mxPoint x="509.99999999999955" y="930" />
            </Array>
          </mxGeometry>
        </mxCell>
        <mxCell id="VZRTLRRTHnjhb6GY3BH8-62" value="" style="edgeStyle=orthogonalEdgeStyle;rounded=0;orthogonalLoop=1;jettySize=auto;html=1;entryX=-0.003;entryY=0.479;entryDx=0;entryDy=0;entryPerimeter=0;exitX=0.5;exitY=1;exitDx=0;exitDy=0;" edge="1" parent="VZRTLRRTHnjhb6GY3BH8-1" source="VZRTLRRTHnjhb6GY3BH8-40" target="VZRTLRRTHnjhb6GY3BH8-47">
          <mxGeometry relative="1" as="geometry" />
        </mxCell>
        <mxCell id="VZRTLRRTHnjhb6GY3BH8-64" value="" style="endArrow=classic;html=1;rounded=0;exitX=1;exitY=0.5;exitDx=0;exitDy=0;" edge="1" parent="VZRTLRRTHnjhb6GY3BH8-1" source="VZRTLRRTHnjhb6GY3BH8-32" target="VZRTLRRTHnjhb6GY3BH8-63">
          <mxGeometry width="50" height="50" relative="1" as="geometry">
            <mxPoint x="1569.9999999999995" y="900" as="sourcePoint" />
            <mxPoint x="1619.9999999999995" y="850" as="targetPoint" />
            <Array as="points">
              <mxPoint x="739.9999999999995" y="750" />
              <mxPoint x="739.9999999999995" y="850" />
            </Array>
          </mxGeometry>
        </mxCell>
        <mxCell id="VZRTLRRTHnjhb6GY3BH8-68" value="" style="edgeStyle=orthogonalEdgeStyle;rounded=0;orthogonalLoop=1;jettySize=auto;html=1;entryX=1;entryY=0.5;entryDx=0;entryDy=0;entryPerimeter=0;exitX=0.5;exitY=1;exitDx=0;exitDy=0;" edge="1" parent="VZRTLRRTHnjhb6GY3BH8-1" source="VZRTLRRTHnjhb6GY3BH8-63" target="VZRTLRRTHnjhb6GY3BH8-55">
          <mxGeometry relative="1" as="geometry">
            <mxPoint x="1694.9999999999995" y="960.0000000000002" as="targetPoint" />
          </mxGeometry>
        </mxCell>
      </root>
    </mxGraphModel>
  </diagram>
</mxfile>
